# xmcd CD database file
#
# Track frame offsets:
#	150
#	8420
#	26508
#	47190
#	66588
#	84306
#	102650
#	119429
#	133191
#	168980
#	181055
#	196733
#	213655
#	228634
#	244573
#	262387
#	287148
#
# Disc length: 4281 seconds
#
# Revision: 4
# Processed by: cddbd v1.5.2PL0 Copyright (c) Steve Scherf et al.
# Submitted via: CDex 1.81
#
DISCID=f910b711
DTITLE=Janis Joplin - Best of Janis Joplin
DYEAR=1900
DGENRE=Blues
TTITLE0=Mercedes Benz
TTITLE1=Cry Baby
TTITLE2=Me and Bobby McGee
TTITLE3=Piece of my heart
TTITLE4=Try
TTITLE5=Summertime
TTITLE6=Move Over
TTITLE7=Down on me
TTITLE8=Ball and Chain
TTITLE9=Bye, Bye Baby
TTITLE10=Get it while you can
TTITLE11=My baby
TTITLE12=Trust me
TTITLE13=A woman Left Lonely
TTITLE14=Half moon
TTITLE15=Kozmic Blues
TTITLE16=Ego rock
EXTD=
EXTT0=
EXTT1=
EXTT2=
EXTT3=
EXTT4=
EXTT5=
EXTT6=
EXTT7=
EXTT8=
EXTT9=
EXTT10=
EXTT11=
EXTT12=
EXTT13=
EXTT14=
EXTT15=
EXTT16=
PLAYORDER=
